<svg width="135" height="55" viewBox="0 0 135 85" fill="none" xmlns="http://www.w3.org/2000/svg">
  <path
    d="M72.68 51.266C72.68 51.226 72.68 51.206 72.66 51.166C72.64 51.087 72.64 50.988 72.62 50.909C72.62 50.869 72.6 50.849 72.6 50.809C72.58 50.73 72.56 50.651 72.52 50.572C72.5 50.532 72.5 50.512 72.48 50.472C72.441 50.393 72.421 50.314 72.381 50.234C72.361 50.214 72.361 50.175 72.341 50.155C72.301 50.075 72.241 49.977 72.182 49.897C72.182 49.877 72.162 49.877 72.162 49.857C72.102 49.758 72.022 49.679 71.962 49.58L71.903 49.52C71.843 49.461 71.783 49.402 71.743 49.342L71.664 49.262C71.604 49.203 71.544 49.164 71.484 49.124C71.464 49.104 71.444 49.104 71.424 49.084L56.643 38.355V13.843C56.643 12.693 56.005 11.661 55.009 11.106C54.5126 10.8428 53.9543 10.7186 53.3931 10.7466C52.8319 10.7746 52.2888 10.9537 51.821 11.265L33.272 23.54C32.8438 23.8202 32.4922 24.2026 32.2486 24.6527C32.0051 25.1027 31.8774 25.6063 31.877 26.118V72.386C31.8799 73.2081 32.2087 73.9955 32.7914 74.5755C33.374 75.1555 34.1629 75.4808 34.985 75.48C35.8071 75.4808 36.596 75.1555 37.1786 74.5755C37.7613 73.9955 38.0901 73.2081 38.093 72.386V56.125L43.193 59.833L50.406 65.069V81.926C50.4089 82.7481 50.7377 83.5355 51.3204 84.1155C51.903 84.6955 52.6919 85.0208 53.514 85.02C54.3361 85.0208 55.125 84.6955 55.7076 84.1155C56.2903 83.5355 56.6191 82.7481 56.622 81.926V64.871L63.296 60.031L66.444 57.751V73.041C66.4469 73.8631 66.7757 74.6505 67.3584 75.2305C67.941 75.8105 68.7299 76.1358 69.552 76.135C70.3741 76.1358 71.163 75.8105 71.7456 75.2305C72.3283 74.6505 72.6571 73.8631 72.66 73.041V51.623C72.7 51.503 72.68 51.385 72.68 51.266V51.266ZM59.65 54.994C56.303 57.414 50.346 57.334 46.86 54.816H46.84C45.445 53.804 44.668 52.575 44.708 51.365C44.728 50.215 45.485 49.085 46.82 48.192C48.553 47.042 50.884 46.466 53.195 46.466C55.605 46.466 57.997 47.081 59.69 48.311C60.985 49.263 61.702 50.433 61.702 51.623C61.722 52.813 60.985 54.023 59.65 54.994ZM38.073 27.764L50.406 19.614V38.315L43.353 43.035L38.073 46.565V27.765V27.764Z"
    fill="black" />
  <path
    d="M62.38 33.734C62.38 33.774 62.38 33.794 62.4 33.834C62.42 33.913 62.42 34.012 62.44 34.091C62.44 34.131 62.46 34.151 62.46 34.191C62.48 34.27 62.5 34.349 62.54 34.428C62.559 34.468 62.559 34.488 62.579 34.528C62.619 34.607 62.639 34.686 62.679 34.766C62.699 34.786 62.699 34.825 62.719 34.845C62.759 34.925 62.818 35.023 62.878 35.103C62.878 35.123 62.898 35.123 62.898 35.143C62.958 35.242 63.038 35.321 63.097 35.42L63.157 35.48C63.217 35.539 63.277 35.599 63.317 35.658L63.396 35.738C63.456 35.797 63.516 35.836 63.576 35.876C63.595 35.896 63.615 35.896 63.635 35.916L78.418 46.645V71.197C78.418 72.347 79.055 73.378 80.052 73.934C80.5483 74.197 81.1064 74.3211 81.6674 74.2931C82.2284 74.2651 82.7714 74.0861 83.239 73.775L101.788 61.5C102.216 61.2198 102.568 60.8375 102.811 60.3874C103.055 59.9373 103.183 59.4337 103.183 58.922V12.633C103.18 11.8109 102.851 11.0235 102.269 10.4435C101.686 9.86347 100.897 9.5382 100.075 9.539C99.2527 9.53794 98.4636 9.86309 97.8807 10.4431C97.2979 11.0232 96.9689 11.8107 96.966 12.633V28.895L91.886 25.187L84.674 19.951V3.094C84.6711 2.27189 84.3423 1.48449 83.7596 0.904483C83.177 0.324474 82.3881 -0.000798001 81.566 1.47026e-06C80.7439 -0.000798001 79.955 0.324474 79.3724 0.904483C78.7897 1.48449 78.4609 2.27189 78.458 3.094V20.149L71.744 25.009L68.596 27.289V11.999C68.5931 11.1769 68.2643 10.3895 67.6816 9.80948C67.099 9.22947 66.3101 8.9042 65.488 8.905C64.6661 8.9042 63.8773 9.22934 63.2947 9.80913C62.7121 10.3889 62.3832 11.1761 62.38 11.998V33.378C62.36 33.496 62.38 33.615 62.38 33.734ZM75.41 30.006C78.757 27.586 84.714 27.666 88.2 30.184H88.22C89.615 31.196 90.392 32.425 90.352 33.635C90.332 34.785 89.575 35.915 88.24 36.808C86.507 37.958 84.176 38.534 81.865 38.534C79.454 38.534 77.063 37.919 75.37 36.689C74.075 35.737 73.357 34.567 73.357 33.377C73.337 32.187 74.075 30.977 75.409 30.006H75.41ZM96.986 57.236L84.654 65.386V46.685L91.707 41.965L96.987 38.435V57.235L96.986 57.236Z"
    fill="black" />
</svg>
