<svg xmlns="http://www.w3.org/2000/svg" xmlns:xlink="http://www.w3.org/1999/xlink" version="1.1" id="Layer_1" x="0px"
  y="0px" viewBox="0 0 86.7 51.3" style="enable-background:new 0 0 86.7 51.3;" xml:space="preserve">
  <style type="text/css">
    .st0 {
      fill: #222020;
    }

    .st1 {
      fill: #63B05A;
    }
  </style>
  <g>
    <path class="st0"
      d="M57.8,18.1c-10.6,0-17.2,6.8-17.2,16.6c0,0.3,0,0.6,0,0.9c0.1,2-0.5,3.9-1.7,5.4C35.7,44.8,32,47,26.5,47   c-8.2,0-14-6.1-14-20.3c0-13,4.6-20.6,12.9-20.6c6.5,0,10.4,4.8,13.7,15.1h2.8L41.6,3.6H39l-1.9,2.7c-3-1.6-6.8-3.2-12.1-3.2   c-14.6,0-25,10-25,24.7c0,14.8,10.6,23.4,23.9,23.4c8.7,0,14.5-4.1,18-9.6c2.6,6.1,8.7,9.6,15.6,9.6C69,51.3,75,43.9,75,34.5   C75,25,68.6,18.1,57.8,18.1z M57.9,48.9c-5,0-6.6-6.7-6.6-14.6c0-6.4,1.1-13.8,6.6-13.8c5.1,0,6.4,6.9,6.4,13.9   C64.3,42.4,62.6,48.9,57.9,48.9z" />
    <path class="st1" d="M80.7,12c-3.3,0-6.1-2.7-6.1-6c0-3.3,2.8-6,6.1-6c3.3,0,6.1,2.7,6.1,6C86.7,9.3,84,12,80.7,12z" />
  </g>
</svg>
