<svg width="16" height="32" viewBox="0 0 16 32" fill="none" xmlns="http://www.w3.org/2000/svg">
  <path fill-rule="evenodd" clip-rule="evenodd" d="M6.9832 30.7267L7.10019 30.6786L6.9832 30.7267Z" fill="black" />
  <path fill-rule="evenodd" clip-rule="evenodd"
    d="M3.26048 31.7823C4.49736 31.5839 5.70776 31.2447 6.86811 30.771C5.7045 31.2351 4.49525 31.5741 3.26048 31.7823"
    fill="black" />
  <mask id="mask0_1_3" style="mask-type:alpha" maskUnits="userSpaceOnUse" x="2" y="0" width="11" height="10">
    <path fill-rule="evenodd" clip-rule="evenodd" d="M2.31123 0H12.5663V9.92373H2.31123V0Z" fill="white" />
  </mask>
  <g mask="url(#mask0_1_3)">
    <path fill-rule="evenodd" clip-rule="evenodd"
      d="M8.23177 9.92373C8.19916 9.86209 8.17039 9.80045 8.13587 9.73111C5.61187 5.0851 6.58234 -0.360276 12.5663 2.41153C11.5747 1.06511 10.0653 -7.62939e-05 8.02463 -7.62939e-05C4.34987 -7.62939e-05 1.80286 2.21121 2.39742 5.30662C3.05527 8.73141 5.61187 9.29578 8.23177 9.92373"
      fill="#2DB59B" />
  </g>
  <path fill-rule="evenodd" clip-rule="evenodd"
    d="M8.23177 9.92372C5.61187 9.29578 3.05335 8.7314 2.39742 5.30083C3.72079 21.348 0 31.9556 0 31.9556C3.34296 32.3197 14.5763 21.9336 8.23177 9.92372"
    fill="#004F40" />
  <path fill-rule="evenodd" clip-rule="evenodd"
    d="M10.821 4.58429C11.1758 4.30114 11.7972 4.4899 12.2076 5.00805C12.6181 5.5262 12.6641 6.17726 12.3093 6.46234C11.9545 6.74742 11.335 6.54902 10.9322 6.03665C10.5294 5.52428 10.4681 4.86937 10.8229 4.58429H10.821ZM8.13586 9.73688C8.17039 9.80045 8.19915 9.86209 8.23176 9.9295C9.80446 10.3051 11.3983 10.7 12.6219 11.7613C12.4301 11.1045 11.824 8.49833 14.116 9.11472C14.116 9.11472 14.2387 6.57213 13.7823 4.9233C13.5304 4.02184 13.1185 3.17354 12.5663 2.41923C6.58234 -0.354499 5.61186 5.09088 8.13586 9.73688V9.73688Z"
    fill="#FCDFB9" />
  <path fill-rule="evenodd" clip-rule="evenodd"
    d="M12.3112 6.46234C12.666 6.17726 12.6219 5.5262 12.2096 5.00805C11.7972 4.4899 11.1777 4.30114 10.8229 4.58429C10.4681 4.86744 10.5122 5.5185 10.9245 6.03665C11.3369 6.55479 11.9564 6.74164 12.3112 6.46234"
    fill="#17383F" />
  <path fill-rule="evenodd" clip-rule="evenodd"
    d="M10.8095 31.9634H13.3028C13.2322 30.3975 12.2464 29.0218 10.7903 28.4577C10.5538 28.6634 10.3068 28.8562 10.05 29.0355L9.78337 29.2281C10.8862 30.1431 10.8402 31.6089 10.8095 31.9634"
    fill="#9B2B26" />
  <path fill-rule="evenodd" clip-rule="evenodd" d="M6.87578 30.771L6.98319 30.7267L6.87578 30.771Z" fill="black" />
  <path fill-rule="evenodd" clip-rule="evenodd"
    d="M12.6219 11.7498C11.3983 10.6942 9.80447 10.2936 8.23177 9.91795C14.5763 21.9336 3.34296 32.3197 0 31.9556C0.637904 32.0148 1.28003 32.0148 1.91793 31.9556C2.33988 31.921 2.79251 31.8651 3.26049 31.7842C4.49525 31.576 5.70451 31.237 6.86812 30.773L6.97552 30.7287L7.09251 30.6805C8.03671 30.2924 8.93795 29.8062 9.78146 29.2301L10.048 29.0374C12.2422 27.4406 14.5629 25.212 15.0462 21.8084C15.8479 16.0991 14.325 13.2252 12.6219 11.7498"
    fill="#F29B0F" />
  <path fill-rule="evenodd" clip-rule="evenodd"
    d="M9.78146 29.2301C8.93911 29.8054 8.03902 30.2908 7.09636 30.6786L6.97936 30.7267L6.87196 30.771C5.71027 31.2449 4.49871 31.5841 3.26049 31.7823C2.78484 31.8632 2.33221 31.9191 1.91794 31.9537L10.8095 31.9634C10.8402 31.6089 10.8862 30.1431 9.78146 29.2301"
    fill="#6B1010" />
</svg>
