<svg width="400" height="400" viewBox="0 0 400 400" fill="none" xmlns="http://www.w3.org/2000/svg">
  <path fill-rule="evenodd" clip-rule="evenodd"
    d="M67.467 75.467C66.947 75.986 67.157 134.197 67.68 134.72C68.048 135.088 79.064 135.202 114.78 135.21C159.313 135.219 163.886 135.326 164.949 136.389C165.28 136.72 165.453 162.051 165.6 231.635C165.777 315.315 165.87 326.474 166.4 326.808C166.766 327.04 180.021 327.19 200.32 327.194L233.641 327.2L234.22 325.813C234.721 324.615 234.8 311.63 234.8 230.622V136.818L235.882 136.109C236.901 135.442 239.763 135.394 284.382 135.296C328.263 135.2 331.837 135.142 332.3 134.52C333.012 133.562 333.032 76.392 332.32 75.68C331.796 75.156 67.99 74.943 67.467 75.467Z"
    fill="#050505" />
  <path fill-rule="evenodd" clip-rule="evenodd"
    d="M67.19 169.826C66.956 170.441 66.805 178.256 66.813 189.326C66.829 210.95 66.436 209.178 71.459 210.269C75.277 211.099 82.8 216.067 82.8 217.758C82.8 217.921 83.227 218.626 83.75 219.327C90.413 228.261 85.255 244.122 74.278 248.448C73.136 248.898 72.022 249.411 71.801 249.588C71.58 249.765 70.631 250.036 69.692 250.191C66.621 250.698 66.8 249.427 66.8 270.749C66.8 285.064 66.92 289.96 67.28 290.32C68.398 291.438 82.363 290.66 84.92 289.338C85.554 289.01 87.294 288.487 88.786 288.176C90.278 287.865 92.53 287.068 93.79 286.405C95.05 285.742 96.381 285.2 96.748 285.2C97.114 285.2 98.052 284.767 98.832 284.237C99.611 283.707 100.929 282.99 101.76 282.642C102.591 282.295 103.809 281.558 104.466 281.005C105.124 280.452 105.896 280 106.182 280C106.468 280 106.949 279.703 107.251 279.339C107.552 278.976 108.729 277.991 109.867 277.151C112.585 275.143 118.918 268.828 120.136 266.912C120.664 266.08 121.48 265.057 121.948 264.638C122.417 264.219 122.8 263.742 122.8 263.578C122.8 263.414 123.43 262.344 124.2 261.2C124.97 260.056 125.6 258.892 125.6 258.615C125.6 258.337 126.14 257.431 126.8 256.6C127.46 255.769 128 254.755 128 254.346C128 253.937 128.527 252.477 129.172 251.101C129.816 249.725 130.461 247.88 130.605 247C130.75 246.12 131.344 243.96 131.925 242.2C133.417 237.687 133.532 223.058 132.11 218.8C131.632 217.37 131.052 215.136 130.822 213.835C130.592 212.534 129.862 210.36 129.202 209.003C128.541 207.647 128 206.226 128 205.846C128 205.467 127.28 203.962 126.4 202.503C125.52 201.044 124.8 199.696 124.8 199.508C124.8 199.319 124.357 198.687 123.816 198.104C123.275 197.52 122.623 196.538 122.367 195.921C122.112 195.305 121.747 194.8 121.556 194.8C121.366 194.8 120.781 194.125 120.257 193.3C119.213 191.655 113.071 185.381 110.439 183.269C106.766 180.322 105.153 179.191 103.843 178.644C103.088 178.328 102.099 177.699 101.645 177.245C101.192 176.792 100.321 176.297 99.71 176.146C99.1 175.995 97.954 175.467 97.165 174.972C96.376 174.477 94.537 173.704 93.079 173.253C91.62 172.803 89.909 172.167 89.277 171.84C88.646 171.513 85.985 170.89 83.364 170.455C80.744 170.021 78.093 169.47 77.474 169.232C74.94 168.259 67.625 168.682 67.19 169.826Z"
    fill="#FC8474" />
  <path fill-rule="evenodd" clip-rule="evenodd"
    d="M67.19 75.21C66.145 76.255 66.099 134.075 67.142 135.331C67.638 135.928 71.837 135.994 115.581 136.092C155.472 136.182 163.588 136.292 164.139 136.749C164.75 137.257 164.8 144.374 164.8 231.595V325.892L165.629 326.946L166.458 328H200.167H233.876L234.638 327.158C235.382 326.336 235.402 324.106 235.502 231.737L235.605 137.157L236.99 136.579C238.171 136.085 245.271 136 285.338 136C328.53 136 332.346 135.947 332.851 135.339C333.696 134.321 333.88 76.536 333.042 75.39C332.469 74.606 331.386 74.599 200.235 74.498L68.005 74.395L67.19 75.21ZM332.32 75.68C333.032 76.392 333.012 133.562 332.3 134.52C331.837 135.142 328.263 135.2 284.382 135.296C239.763 135.394 236.901 135.442 235.882 136.109L234.8 136.818V230.622C234.8 311.63 234.721 324.615 234.22 325.813L233.641 327.2L200.32 327.194C180.021 327.19 166.766 327.04 166.4 326.808C165.87 326.474 165.777 315.315 165.6 231.635C165.453 162.051 165.28 136.72 164.949 136.389C163.886 135.326 159.313 135.219 114.78 135.21C79.064 135.202 68.048 135.088 67.68 134.72C67.157 134.197 66.947 75.986 67.467 75.467C67.99 74.943 331.796 75.156 332.32 75.68ZM275.435 251.161C274.397 252.308 274.492 315.777 275.534 317.131C276.176 317.966 276.305 317.997 276.774 317.431C277.062 317.084 277.636 316.8 278.049 316.8C278.462 316.8 279.175 316.425 279.633 315.967C280.091 315.509 281.344 314.693 282.418 314.154C283.491 313.614 284.476 313 284.607 312.788C284.738 312.576 285.735 312.02 286.823 311.552C287.91 311.084 288.8 310.557 288.8 310.38C288.8 310.203 289.79 309.59 291 309.017C292.21 308.445 293.2 307.81 293.2 307.607C293.2 307.404 294.025 306.873 295.033 306.427C296.041 305.981 297.405 305.162 298.063 304.608C298.722 304.054 299.473 303.598 299.731 303.596C299.989 303.594 300.99 302.964 301.956 302.196C302.922 301.428 303.943 300.8 304.226 300.8C304.508 300.8 305.276 300.348 305.934 299.795C306.591 299.242 307.733 298.536 308.472 298.228C309.211 297.919 310.146 297.301 310.55 296.856C310.953 296.41 311.764 295.94 312.353 295.81C312.941 295.681 314.035 295.053 314.783 294.415C315.53 293.777 316.92 292.957 317.871 292.594C318.822 292.231 319.6 291.766 319.6 291.562C319.6 291.357 320.567 290.762 321.749 290.24C322.931 289.717 324.023 289.087 324.176 288.839C324.329 288.591 325.169 288.024 326.042 287.578C326.916 287.133 328.029 286.423 328.515 286C329.002 285.578 329.76 284.955 330.2 284.616C330.964 284.027 330.967 283.98 330.276 283.566C329.878 283.328 328.978 282.633 328.276 282.021C327.574 281.409 326.57 280.774 326.045 280.61C325.52 280.446 324.292 279.701 323.315 278.956C322.338 278.21 321.31 277.6 321.031 277.6C320.752 277.6 320.199 277.241 319.801 276.802C319.404 276.362 318.116 275.562 316.939 275.024C315.763 274.485 314.8 273.868 314.8 273.653C314.8 273.438 314.165 273.053 313.39 272.797C312.614 272.541 311.488 271.917 310.886 271.411C310.285 270.905 309.145 270.221 308.353 269.89C307.561 269.559 306.573 268.94 306.157 268.514C305.74 268.088 304.77 267.499 304 267.206C303.23 266.912 302.145 266.256 301.589 265.746C301.032 265.237 299.997 264.618 299.289 264.371C298.58 264.124 298 263.749 298 263.538C298 263.328 297.183 262.794 296.185 262.352C295.187 261.911 293.792 261.047 293.085 260.432C292.378 259.817 291.139 259.099 290.332 258.837C289.525 258.574 288.639 258.088 288.364 257.756C288.089 257.425 287.222 256.886 286.437 256.558C285.653 256.23 284.648 255.631 284.205 255.228C283.762 254.824 282.832 254.207 282.138 253.856C281.444 253.506 280.6 252.943 280.263 252.606C278.863 251.206 276.134 250.389 275.435 251.161Z"
    fill="#5494E4" />
  <path fill-rule="evenodd" clip-rule="evenodd"
    d="M66.48 74.48C65.785 75.175 65.785 135.625 66.48 136.32C66.848 136.688 77.993 136.801 114.18 136.805C140.151 136.808 161.805 136.919 162.3 137.052L163.2 137.293V230.796C163.2 331.176 163.116 326.82 165.087 328.3C165.608 328.691 173.275 328.8 200.256 328.8H234.759L237 326.723L237.205 137.292L238.102 137.051C238.596 136.919 260.071 136.808 285.824 136.805C325.623 136.801 332.764 136.715 333.424 136.232C334.444 135.486 334.664 75.883 333.651 74.662C332.936 73.8 67.34 73.62 66.48 74.48ZM333.042 75.39C333.88 76.536 333.696 134.321 332.851 135.339C332.346 135.947 328.53 136 285.338 136C245.271 136 238.171 136.085 236.99 136.579L235.605 137.157L235.502 231.737C235.402 324.106 235.382 326.336 234.638 327.158L233.876 328H166.458L164.8 325.892V231.595C164.8 144.374 164.75 137.257 164.139 136.749C163.588 136.292 155.472 136.182 115.581 136.092C71.837 135.994 67.638 135.928 67.142 135.331C66.099 134.075 66.145 76.255 67.19 75.21L68.005 74.395L200.235 74.498C331.386 74.599 332.469 74.606 333.042 75.39ZM293.6 165.59C292.39 165.746 290.851 166.159 290.181 166.506C289.51 166.853 287.8 167.526 286.381 168C284.961 168.475 283.34 169.299 282.778 169.832C282.216 170.364 281.58 170.8 281.365 170.8C280.442 170.8 272 179.717 272 180.692C272 180.981 271.525 181.935 270.944 182.813C270.363 183.691 269.563 185.712 269.166 187.304C268.769 188.897 268.167 191.19 267.827 192.4C266.851 195.878 267.174 202.49 268.403 204.2C268.561 204.42 269.001 205.892 269.381 207.47C269.761 209.049 270.409 210.646 270.821 211.019C271.233 211.392 271.776 212.35 272.028 213.148C272.514 214.69 272.886 215.134 278.017 220.284C280.086 222.36 281.824 223.742 282.744 224.042C283.545 224.302 284.7 224.933 285.312 225.442C285.923 225.951 287.093 226.486 287.912 226.63C288.73 226.775 290.57 227.355 292 227.92C295.901 229.46 303.523 229.457 308.4 227.912C310.27 227.319 312.536 226.648 313.435 226.421C314.334 226.193 315.48 225.651 315.982 225.215C316.484 224.78 317.279 224.305 317.748 224.16C318.52 223.92 319.982 222.749 323.4 219.629C325.198 217.988 327.849 214.707 328.154 213.744C328.302 213.277 328.78 212.484 329.216 211.982C329.652 211.479 330.254 210.243 330.554 209.234C330.854 208.225 331.527 206.5 332.05 205.4C333.522 202.301 333.442 191.181 331.926 188.2C331.367 187.1 330.79 185.543 330.644 184.741C330.498 183.938 330.049 182.858 329.646 182.341C329.243 181.823 328.628 180.843 328.279 180.162C327.534 178.711 320.114 170.8 319.497 170.8C319.265 170.8 318.476 170.343 317.744 169.785C317.012 169.226 315.665 168.505 314.75 168.182C313.836 167.86 312.528 167.258 311.844 166.844C309.408 165.372 300.184 164.737 293.6 165.59ZM274.5 248.634L273.2 249.202V318.755L274.089 319.377C275.227 320.174 276.647 320.177 276.952 319.382C277.082 319.042 277.816 318.502 278.583 318.181C280.118 317.54 285.566 314.114 286.2 313.392C286.42 313.141 287.355 312.7 288.277 312.412C289.199 312.123 290.323 311.463 290.774 310.944C291.226 310.425 291.852 310 292.167 310C292.481 310 293.278 309.546 293.937 308.992C294.595 308.438 295.97 307.614 296.991 307.163C298.012 306.711 298.943 306.093 299.059 305.79C299.176 305.487 299.889 305.035 300.646 304.785C301.402 304.535 302.511 303.927 303.11 303.433C303.71 302.939 304.965 302.111 305.9 301.594C306.835 301.076 307.6 300.533 307.6 300.387C307.6 300.241 308.365 299.791 309.3 299.388C310.235 298.984 311.45 298.265 312 297.791C312.55 297.316 313.63 296.69 314.4 296.399C315.17 296.108 316.162 295.548 316.605 295.154C317.048 294.76 318.074 294.161 318.883 293.823C319.693 293.485 320.501 292.976 320.678 292.692C320.855 292.409 321.81 291.823 322.8 291.389C323.79 290.956 325.089 290.106 325.687 289.501C326.284 288.895 327.013 288.4 327.306 288.4C327.88 288.4 332.551 285.127 332.99 284.417C333.135 284.181 332.837 283.641 332.327 283.216C331.817 282.792 330.77 281.919 330 281.276C329.23 280.634 328.15 279.973 327.6 279.809C327.05 279.645 326.15 279.092 325.6 278.581C325.05 278.07 323.745 277.286 322.7 276.84C321.655 276.394 320.8 275.836 320.8 275.6C320.8 275.364 319.989 274.824 318.997 274.399C318.006 273.974 316.811 273.269 316.343 272.833C315.875 272.397 314.989 271.929 314.375 271.795C313.761 271.66 312.827 271.118 312.3 270.591C311.773 270.063 310.542 269.289 309.565 268.871C308.588 268.452 307.56 267.834 307.281 267.498C307.002 267.161 306.194 266.654 305.487 266.37C304.779 266.087 303.609 265.347 302.886 264.727C302.163 264.107 301.353 263.598 301.086 263.596C300.819 263.594 299.81 262.964 298.844 262.196C297.878 261.428 296.867 260.8 296.599 260.8C296.33 260.8 295.439 260.267 294.62 259.616C293.8 258.965 292.741 258.314 292.265 258.17C291.789 258.026 291.038 257.577 290.595 257.173C290.152 256.769 289.072 256.139 288.195 255.772C287.318 255.406 286.009 254.587 285.286 253.953C284.563 253.319 283.753 252.795 283.486 252.789C283.219 252.783 282.293 252.243 281.429 251.589C280.565 250.935 279.626 250.4 279.343 250.4C279.06 250.4 278.213 249.86 277.461 249.2C276.709 248.54 276.028 248.015 275.947 248.033C275.866 248.051 275.215 248.321 274.5 248.634ZM280.263 252.606C280.6 252.943 281.444 253.506 282.138 253.856C282.832 254.207 283.762 254.824 284.205 255.228C284.648 255.631 285.653 256.23 286.437 256.558C287.222 256.886 288.089 257.425 288.364 257.756C288.639 258.088 289.525 258.574 290.332 258.837C291.139 259.099 292.378 259.817 293.085 260.432C293.792 261.047 295.187 261.911 296.185 262.352C297.183 262.794 298 263.328 298 263.538C298 263.749 298.58 264.124 299.289 264.371C299.997 264.618 301.032 265.237 301.589 265.746C302.145 266.256 303.23 266.912 304 267.206C304.77 267.499 305.74 268.088 306.157 268.514C306.573 268.94 307.561 269.559 308.353 269.89C309.145 270.221 310.285 270.905 310.886 271.411C311.488 271.917 312.614 272.541 313.39 272.797C314.165 273.053 314.8 273.438 314.8 273.653C314.8 273.868 315.763 274.485 316.939 275.024C318.116 275.562 319.404 276.362 319.801 276.802C320.199 277.241 320.752 277.6 321.031 277.6C321.31 277.6 322.338 278.21 323.315 278.956C324.292 279.701 325.52 280.446 326.045 280.61C326.57 280.774 327.574 281.409 328.276 282.021C328.978 282.633 329.878 283.328 330.276 283.566C330.967 283.98 330.964 284.027 330.2 284.616C329.76 284.955 329.002 285.578 328.515 286C328.029 286.423 326.916 287.133 326.042 287.578C325.169 288.024 324.329 288.591 324.176 288.839C324.023 289.087 322.931 289.717 321.749 290.24C320.567 290.762 319.6 291.357 319.6 291.562C319.6 291.766 318.822 292.231 317.871 292.594C316.92 292.957 315.53 293.777 314.783 294.415C314.035 295.053 312.941 295.681 312.353 295.81C311.764 295.94 310.953 296.41 310.55 296.856C310.146 297.301 309.211 297.919 308.472 298.228C307.733 298.536 306.591 299.242 305.934 299.795C305.276 300.348 304.508 300.8 304.226 300.8C303.943 300.8 302.922 301.428 301.956 302.196C300.99 302.964 299.989 303.594 299.731 303.596C299.473 303.598 298.722 304.054 298.063 304.608C297.405 305.162 296.041 305.981 295.033 306.427C294.025 306.873 293.2 307.404 293.2 307.607C293.2 307.81 292.21 308.445 291 309.017C289.79 309.59 288.8 310.203 288.8 310.38C288.8 310.557 287.91 311.084 286.823 311.552C285.735 312.02 284.738 312.576 284.607 312.788C284.476 313 283.491 313.614 282.418 314.154C281.344 314.693 280.091 315.509 279.633 315.967C279.175 316.425 278.462 316.8 278.049 316.8C277.636 316.8 277.062 317.084 276.774 317.431C276.305 317.997 276.176 317.966 275.534 317.131C274.492 315.777 274.397 252.308 275.435 251.161C276.134 250.389 278.863 251.206 280.263 252.606Z"
    fill="#9DE4DC" />
</svg>
